<?xml version="1.0" standalone="no"?>
<!DOCTYPE svg PUBLIC "-//W3C//DTD SVG 20010904//EN"
 "http://www.w3.org/TR/2001/REC-SVG-20010904/DTD/svg10.dtd">
<svg version="1.0" xmlns="http://www.w3.org/2000/svg"
 width="749.000000pt" height="741.000000pt" viewBox="0 0 749.000000 741.000000"
 preserveAspectRatio="xMidYMid meet">
<metadata>
Created by potrace 1.15, written by Peter Selinger 2001-2017
</metadata>
<g transform="translate(0.000000,741.000000) scale(0.100000,-0.100000)"
fill="#000000" stroke="none">
<path d="M3387 7223 c-4 -3 -103 -8 -220 -9 -362 -3 -1272 -80 -1421 -119 -93
-24 -190 -69 -258 -118 -75 -54 -1017 -995 -1060 -1058 -45 -66 -83 -146 -106
-220 -39 -125 -101 -753 -127 -1269 -25 -514 -15 -1439 20 -1835 52 -583 75
-787 100 -888 24 -90 86 -212 150 -292 71 -89 929 -937 960 -949 17 -7 30 -5
47 6 24 16 24 15 47 -43 26 -67 46 -83 159 -123 198 -70 1316 -156 2042 -156
548 0 1348 50 1840 115 181 23 332 81 344 132 4 15 14 42 22 61 12 31 15 32
30 18 19 -20 37 -20 72 -2 36 19 919 908 964 971 47 65 102 176 122 245 25 87
74 522 101 900 36 487 48 1013 36 1478 -19 666 -91 1483 -147 1652 -30 89 -85
186 -145 255 -108 122 -940 952 -994 990 -168 119 -241 138 -740 190 -181 19
-777 58 -960 62 -387 10 -871 14 -878 6z m258 -24 c204 0 400 -3 437 -7 44 -5
72 -4 78 2 6 6 61 9 138 8 276 -6 1271 -86 1288 -104 3 -4 -16 -121 -20 -126
-4 -4 -165 12 -336 33 -152 19 -468 42 -825 60 -673 34 -1589 8 -2250 -65 -99
-11 -205 -22 -236 -26 l-56 -6 -7 62 c-4 34 -5 64 -2 67 24 24 1329 123 1401
105 11 -2 187 -4 390 -3z m-1811 -111 c3 -7 7 -38 10 -68 l5 -55 -72 -17 c-88
-22 -178 -65 -234 -112 -22 -20 -45 -36 -50 -36 -5 0 -28 20 -52 44 l-42 43
48 42 c64 55 206 127 295 151 89 23 88 23 92 8z m3895 -19 c35 -11 89 -33 120
-49 67 -34 181 -117 181 -133 0 -13 -70 -87 -82 -87 -5 0 -32 18 -61 39 -71
53 -146 89 -229 110 -38 10 -69 21 -70 24 0 4 3 35 6 68 l7 60 32 -6 c18 -3
61 -15 96 -26z m-1309 -19 c336 -18 616 -39 878 -67 248 -27 252 -27 252 -50
0 -29 7 -29 -244 1 -921 112 -2257 112 -3173 1 -251 -31 -243 -31 -243 -2 0
23 4 23 253 50 357 39 589 54 1222 81 140 6 853 -3 1055 -14z m65 -65 c149 -8
360 -22 470 -30 202 -16 572 -59 581 -67 2 -3 -16 -63 -42 -134 -25 -71 -63
-178 -83 -239 -21 -60 -55 -157 -77 -214 l-38 -104 -71 7 c-38 3 -167 15 -285
26 -721 67 -1731 67 -2450 0 -118 -12 -246 -23 -285 -26 l-70 -6 -93 263
c-127 363 -145 419 -138 426 11 12 374 52 641 72 223 17 396 26 840 45 164 7
839 -5 1100 -19z m-2635 -59 c0 -20 -7 -25 -37 -31 -65 -12 -156 -54 -218
-100 -54 -41 -61 -43 -75 -29 -13 14 -11 19 25 51 49 42 157 99 228 118 72 19
77 18 77 -9z m3850 -3 c62 -21 148 -67 193 -106 37 -31 38 -33 20 -49 -18 -16
-21 -15 -63 19 -55 44 -148 89 -218 105 -44 11 -52 16 -52 36 0 21 3 22 38 16
20 -4 57 -13 82 -21z m-3815 -50 c4 -10 31 -88 60 -173 29 -85 81 -232 114
-327 34 -94 61 -174 61 -177 0 -3 -9 -6 -20 -6 -10 0 -53 -18 -95 -40 l-75
-39 -78 117 c-43 64 -132 202 -197 306 l-118 190 45 40 c48 45 137 92 208 112
64 17 87 17 95 -3z m3777 -3 c63 -19 155 -73 211 -123 l27 -24 -76 -119 c-42
-66 -113 -177 -159 -249 -112 -178 -157 -245 -164 -245 -4 0 -23 11 -43 25
-32 21 -73 40 -130 59 -17 5 -17 9 3 58 11 29 43 116 69 193 49 142 130 368
149 418 13 33 27 34 113 7z m-4222 -45 l44 -45 -424 -425 c-234 -234 -429
-425 -434 -425 -6 0 -30 19 -53 42 l-43 43 427 427 c235 236 430 428 433 428
3 0 26 -20 50 -45z m5039 -382 l420 -428 -44 -45 -45 -45 -427 427 -428 428
45 45 c24 25 47 45 51 45 4 0 196 -192 428 -427z m-5381 -130 c-369 -369 -418
-415 -433 -403 -15 12 30 60 402 432 371 371 419 416 433 403 13 -14 -31 -61
-402 -432z m5524 -226 c138 -144 159 -169 147 -183 -11 -13 -67 39 -430 402
-398 398 -417 419 -402 437 16 17 29 6 271 -235 139 -139 326 -328 414 -421z
m-4965 418 c66 -104 153 -241 193 -303 l74 -113 -302 -302 -302 -302 -28 16
c-15 9 -110 69 -212 134 -102 65 -228 145 -280 178 -52 33 -97 62 -100 64 -2
2 182 190 410 418 228 228 417 411 421 407 4 -4 60 -92 126 -197z m4671 -208
l413 -414 -178 -115 c-296 -192 -433 -278 -440 -278 -10 0 -603 593 -603 602
0 8 76 128 240 383 42 66 94 146 113 178 20 31 38 57 39 57 2 0 189 -186 416
-413z m-2098 -37 c329 -15 538 -28 780 -51 291 -27 280 -24 280 -56 l0 -26
-77 6 c-43 3 -175 15 -293 26 -771 73 -1783 67 -2564 -14 -187 -20 -203 -20
-211 6 -4 11 -5 23 -2 26 8 8 461 50 672 63 497 30 1017 37 1415 20z m-50 -70
c514 -21 1063 -66 1170 -96 52 -15 69 -30 397 -357 345 -344 366 -368 386
-457 11 -48 47 -426 57 -600 5 -96 12 -211 15 -255 24 -339 22 -1106 -5 -1570
-13 -230 -48 -636 -61 -724 -16 -105 -41 -140 -263 -360 l-205 -205 -12 30
c-6 16 -17 45 -24 65 l-13 36 175 174 c96 96 184 192 195 213 21 41 40 206 73
619 36 455 42 1225 15 1742 -16 292 -59 756 -76 815 -15 52 -31 70 -327 368
-172 172 -327 322 -345 334 -37 23 -141 36 -487 63 -737 57 -1428 59 -2195 5
-272 -19 -475 -42 -518 -58 -33 -13 -114 -88 -362 -336 -276 -276 -322 -326
-334 -365 -47 -146 -100 -984 -100 -1581 0 -395 10 -649 44 -1105 26 -344 43
-466 74 -520 14 -23 100 -113 191 -200 184 -175 177 -162 138 -253 l-18 -43
-217 218 c-171 172 -220 227 -232 261 -15 41 -42 280 -66 562 -41 498 -51
1226 -25 1740 23 452 64 903 90 980 13 40 63 94 373 402 342 340 359 356 407
367 65 14 508 57 745 71 478 29 943 36 1340 20z m1910 -735 l-20 -20 -302 302
c-301 301 -302 302 -283 323 l19 21 303 -303 303 -303 -20 -20z m-4129 599
c11 -13 -28 -56 -289 -317 -300 -300 -301 -301 -322 -282 l-21 19 298 298
c164 164 303 298 309 298 6 0 17 -7 25 -16z m2684 -28 c287 -20 567 -47 582
-55 7 -4 9 -12 4 -19 -7 -11 -37 -11 -167 2 -810 80 -1728 86 -2519 16 -121
-11 -248 -22 -282 -26 -54 -6 -63 -5 -63 9 0 9 10 19 23 21 64 15 444 45 802
66 250 14 1367 5 1620 -14z m-4076 -70 l44 -45 -37 -43 c-46 -53 -101 -163
-121 -242 -8 -32 -17 -61 -19 -63 -2 -2 -31 -1 -65 3 -44 5 -61 11 -61 21 0
37 35 145 70 218 37 76 121 195 138 195 4 0 27 -20 51 -44z m3631 34 c318 -10
641 -31 868 -56 74 -7 138 -14 143 -14 5 0 9 -7 9 -15 0 -18 15 -18 -182 0
-508 45 -636 50 -1323 50 -686 -1 -811 -5 -1323 -51 -95 -8 -177 -12 -183 -8
-24 14 13 24 151 38 547 56 1204 76 1840 56z m2760 -37 c53 -62 136 -231 152
-310 6 -34 10 -64 7 -67 -2 -2 -31 -7 -64 -11 l-61 -6 -11 56 c-17 77 -73 191
-124 248 l-42 48 44 45 c24 24 46 44 50 44 4 0 26 -21 49 -47z m-2745 -13
c420 -14 1016 -59 1053 -79 24 -13 622 -615 623 -626 0 -6 2 -19 4 -30 6 -33
44 -440 55 -585 31 -427 36 -1215 9 -1700 -8 -164 -54 -689 -64 -747 -2 -12
-8 -30 -14 -40 -17 -31 -311 -319 -311 -304 0 7 66 81 148 163 81 82 149 151
151 153 2 2 5 19 7 37 1 18 10 105 19 193 52 530 73 1161 57 1682 -11 344 -38
778 -62 1008 -17 164 -25 175 -320 471 -140 140 -268 263 -285 273 -65 40
-130 50 -470 76 -801 60 -1401 60 -2195 0 -184 -14 -353 -31 -375 -36 -86 -23
-133 -61 -383 -313 -287 -288 -306 -316 -318 -461 -40 -478 -41 -492 -54 -820
-15 -341 -12 -868 5 -1235 16 -342 59 -850 74 -878 5 -9 59 -65 119 -124 98
-97 113 -108 145 -108 20 0 39 5 42 10 3 5 10 10 15 10 8 0 1 -27 -26 -99 -6
-17 -270 241 -305 297 -25 40 -32 90 -58 447 -55 745 -56 1481 -1 2230 11 149
24 305 30 348 l10 79 264 271 c261 268 335 340 367 358 24 12 149 25 484 49
503 37 1040 47 1560 30z m-125 -30 c286 -8 706 -33 788 -46 37 -6 45 -34 10
-34 -13 0 -113 7 -223 15 -110 8 -369 20 -576 26 -407 13 -930 3 -1324 -26
-249 -18 -245 -18 -245 -1 0 10 15 17 43 20 104 14 504 39 732 45 370 11 450
11 795 1z m-3440 -39 c0 -4 -17 -30 -38 -58 -40 -53 -83 -146 -102 -221 -8
-32 -15 -42 -28 -40 -45 10 12 188 94 291 37 48 48 56 60 46 8 -6 14 -14 14
-18z m1427 13 c2 -5 -120 -132 -271 -283 -215 -215 -278 -272 -292 -267 -15 6
36 61 261 286 154 154 284 279 289 277 6 -2 11 -7 13 -13z m3582 -260 c189
-192 269 -280 262 -287 -8 -8 -90 67 -268 243 -142 140 -269 264 -282 276 -23
22 -22 44 4 44 7 0 135 -124 284 -276z m1228 177 c40 -60 98 -214 89 -237 -3
-8 -13 -14 -23 -14 -14 0 -23 16 -38 68 -22 77 -62 157 -106 213 -26 33 -29
42 -19 55 11 13 16 12 37 -8 13 -12 40 -47 60 -77z m-6077 -11 c58 -37 177
-113 265 -170 88 -56 175 -112 193 -122 36 -22 39 -30 18 -47 -17 -14 -66
-116 -66 -137 0 -29 -28 -24 -171 26 -79 28 -227 81 -329 116 -102 36 -190 66
-197 69 -17 6 10 115 47 191 35 72 107 157 123 147 7 -4 59 -37 117 -73z
m5979 43 c66 -80 149 -279 125 -303 -5 -5 -94 -38 -199 -74 -104 -35 -253 -87
-330 -115 -77 -28 -146 -51 -152 -51 -7 0 -18 20 -24 45 -6 25 -24 63 -40 85
-16 22 -29 44 -29 49 0 5 52 42 115 83 63 40 199 128 302 195 103 67 191 122
195 122 3 1 20 -16 37 -36z m-4675 19 c3 -5 -120 -133 -273 -286 -185 -185
-281 -274 -286 -266 -5 8 33 54 106 129 428 437 438 447 453 423z m2056 -2
c286 -10 869 -45 925 -56 29 -5 30 -7 26 -51 l-3 -45 -52 6 c-87 10 -401 35
-611 48 -123 8 -410 12 -745 12 -546 0 -737 -8 -1214 -49 -93 -8 -171 -13
-172 -12 -2 2 -6 21 -10 44 l-6 41 38 6 c63 9 145 15 409 32 509 32 962 40
1415 24z m1450 -265 c219 -219 272 -277 262 -287 -10 -10 -68 43 -287 262
-151 151 -275 281 -275 287 0 7 6 13 13 13 6 0 136 -124 287 -275z m-3714 -84
c-187 -187 -217 -213 -230 -201 -14 11 11 40 201 231 194 194 219 217 231 202
11 -15 -13 -43 -202 -232z m2584 229 c102 -5 259 -16 350 -24 91 -8 203 -18
250 -21 l85 -7 264 -263 c211 -210 265 -269 266 -292 4 -56 26 -300 36 -408
52 -539 44 -1644 -16 -2245 -8 -80 -15 -153 -15 -162 0 -25 -45 -51 -74 -44
-27 7 -36 22 -85 144 -99 247 -288 411 -544 472 -79 19 -122 20 -1285 20
-1061 0 -1212 -2 -1280 -16 -154 -32 -271 -96 -384 -211 -92 -94 -128 -154
-194 -317 -38 -96 -75 -119 -121 -77 -18 17 -22 40 -32 183 -7 89 -16 199 -21
243 -5 44 -15 197 -21 340 -13 297 -6 1327 10 1470 5 50 12 144 16 210 3 66
12 185 20 265 8 80 15 148 15 152 0 4 118 125 263 269 l262 262 135 13 c196
19 566 45 790 54 244 10 1063 4 1310 -10z m1070 -205 c163 -163 212 -217 203
-226 -17 -17 -456 410 -441 428 6 7 13 13 17 13 3 0 103 -97 221 -215z m-3388
148 l29 -27 -218 -218 -217 -218 -33 32 -33 32 212 213 c117 117 217 213 222
213 6 0 23 -12 38 -27z m3346 -186 l212 -213 -32 -31 -33 -32 -215 214 -214
215 29 30 c16 16 31 30 34 30 4 0 102 -96 219 -213z m-5124 63 l39 0 -6 -72
c-3 -40 -13 -136 -21 -213 -103 -947 -101 -2216 5 -3208 14 -129 19 -211 13
-216 -5 -5 -34 -11 -64 -13 l-54 -3 -12 102 c-21 172 -63 649 -74 828 -54 903
-35 1675 66 2630 19 181 18 179 47 171 12 -3 40 -6 61 -6z m6758 -220 c14
-124 39 -396 54 -605 27 -362 28 -412 28 -1045 -1 -619 -3 -690 -27 -1020 -15
-195 -39 -464 -54 -598 l-28 -244 -45 7 c-85 12 -83 10 -77 74 3 31 17 169 31
306 41 401 55 623 67 1068 20 742 -8 1414 -87 2099 -9 75 -14 144 -12 155 2
13 15 20 48 24 79 11 72 26 102 -221z m-6662 152 c0 -20 -9 -116 -20 -212
-107 -929 -107 -2240 0 -3160 26 -225 26 -250 1 -250 -24 0 -26 7 -51 250
-104 1032 -104 2128 0 3160 25 243 27 250 51 250 15 0 19 -7 19 -38z m6494 16
c17 -77 72 -685 86 -938 37 -695 25 -1553 -31 -2155 -23 -256 -48 -492 -55
-522 -3 -15 -12 -23 -26 -23 -19 0 -20 4 -15 57 83 759 100 1056 100 1773 0
719 -17 1021 -100 1773 -5 53 -4 57 15 57 14 0 23 -8 26 -22z m-6279 -52 c273
-93 493 -171 500 -178 3 -3 -1 -61 -9 -129 -17 -138 -39 -429 -58 -769 -16
-289 -16 -1081 0 -1365 20 -345 41 -629 58 -764 12 -101 13 -126 2 -132 -7 -5
-67 -27 -133 -50 -66 -23 -205 -73 -309 -111 -104 -38 -201 -72 -217 -75 -32
-6 -26 -33 -59 267 -52 481 -75 950 -75 1550 0 620 23 1075 80 1585 14 121 25
223 25 228 0 10 -16 14 195 -57z m6219 37 c8 -39 33 -271 56 -518 68 -740 68
-1809 0 -2550 -24 -257 -49 -492 -56 -522 -2 -13 -9 -23 -14 -23 -5 0 -112 36
-237 80 -329 116 -427 152 -437 161 -6 5 -1 100 13 241 31 328 39 467 53 931
17 583 -1 1191 -53 1745 -13 136 -18 236 -13 241 5 4 63 27 129 51 183 65 539
189 547 189 3 1 9 -11 12 -26z m-5644 -238 c0 -7 -9 -102 -19 -211 -88 -897
-90 -1752 -6 -2636 14 -142 25 -262 25 -268 0 -5 -13 -10 -28 -10 l-28 0 -12
103 c-65 555 -90 1519 -57 2162 21 399 55 826 70 871 5 15 55 5 55 -11z m4959
-265 c74 -856 75 -1714 0 -2570 -26 -300 -24 -290 -57 -290 l-28 0 22 228 c47
488 58 754 58 1352 -1 587 -11 825 -55 1291 -25 267 -25 267 4 271 30 4 31 -3
56 -282z m-4773 176 c-56 -428 -81 -1003 -73 -1661 7 -526 24 -847 67 -1225 6
-47 10 -88 10 -92 0 -5 -8 -8 -18 -8 -16 0 -20 14 -30 103 -39 329 -72 993
-72 1422 0 417 36 1127 71 1405 13 106 15 111 34 104 12 -5 15 -16 11 -48z
m4555 -143 c48 -500 53 -621 54 -1313 0 -680 -4 -797 -45 -1245 -26 -277 -27
-285 -47 -285 -14 0 -15 10 -10 68 59 632 71 895 71 1462 -1 448 -4 584 -23
840 -23 322 -37 497 -47 594 -5 44 -3 60 7 66 7 5 15 7 18 5 2 -2 12 -89 22
-192z m-4505 145 c-26 -211 -56 -686 -67 -1080 -17 -581 14 -1424 67 -1855 4
-34 2 -43 -10 -43 -16 0 -20 21 -36 165 -53 499 -74 1324 -50 1940 10 257 44
720 60 835 5 36 10 68 10 73 0 4 7 7 16 7 12 0 14 -8 10 -42z m4434 25 c0 -10
9 -115 20 -233 72 -784 72 -1752 0 -2525 -11 -115 -20 -218 -20 -227 0 -11 -8
-18 -20 -18 -18 0 -20 5 -15 37 9 68 44 454 57 638 9 121 13 396 13 835 0 439
-4 714 -13 835 -13 184 -48 570 -57 638 -5 32 -3 37 15 37 12 0 20 -7 20 -17z
m-4240 -102 c0 -3 -7 -71 -16 -151 -20 -204 -41 -594 -50 -937 l-7 -293 -43 0
-44 0 0 104 c0 138 18 627 30 801 5 77 14 214 20 305 7 91 13 170 15 175 3 11
95 7 95 -4z m4114 -38 c3 -32 8 -103 12 -158 3 -55 12 -190 20 -300 9 -110 18
-354 21 -542 l6 -343 -42 0 c-26 0 -41 5 -41 13 0 6 -5 158 -11 337 -6 179
-10 340 -10 358 1 18 -3 88 -9 155 -6 67 -15 183 -20 257 -6 74 -13 165 -16
202 l-6 67 38 4 c22 2 42 4 46 5 3 1 9 -24 12 -55z m87 -425 c11 -145 22 -410
26 -590 6 -324 6 -328 -14 -328 -19 0 -20 9 -27 353 -3 193 -14 459 -24 589
-15 211 -16 238 -2 241 8 2 17 2 19 0 2 -1 12 -121 22 -265z m-4335 200 c-15
-136 -26 -350 -37 -725 -12 -376 -14 -393 -32 -393 -18 0 -19 8 -13 223 10
345 25 669 37 820 11 126 13 137 32 137 18 0 19 -5 13 -62z m-46 -1245 c0
-225 30 -878 47 -1020 5 -48 4 -53 -14 -53 -19 0 -21 10 -32 138 -12 150 -27
474 -37 820 -6 221 -6 222 15 222 20 0 21 -5 21 -107z m111 -55 c0 -90 0 -191
-1 -225 -1 -57 4 -153 30 -533 24 -351 33 -446 47 -472 7 -16 18 -28 23 -28 6
0 10 -4 10 -8 0 -13 -112 -64 -120 -55 -4 4 -13 80 -19 168 -7 88 -16 207 -21
265 -14 151 -28 474 -36 783 l-7 267 46 0 47 0 1 -162z m4236 -180 c-3 -189
-13 -437 -21 -553 -9 -115 -18 -250 -21 -300 -4 -49 -10 -133 -15 -185 -5 -52
-10 -98 -10 -102 0 -12 -30 -9 -30 2 0 6 -7 10 -15 10 -8 0 -30 8 -50 17 l-35
17 21 22 c24 26 36 117 64 514 11 160 34 731 35 888 0 7 15 12 41 12 l42 0 -6
-342z m60 10 c-7 -313 -37 -842 -50 -855 -4 -3 -12 -3 -19 0 -11 4 -10 47 4
243 10 132 21 398 24 592 7 343 8 352 27 352 20 0 20 -4 14 -332z m-2337 -508
l39 -39 -572 -4 c-633 -4 -617 -2 -762 -72 -162 -78 -258 -192 -354 -419 -21
-48 -22 -49 -41 -31 -36 33 -27 102 27 208 86 168 256 312 438 371 88 28 157
31 677 28 l509 -3 39 -39z m1360 36 c254 -46 460 -206 559 -432 36 -85 38
-134 5 -165 l-23 -22 -26 58 c-14 32 -25 62 -25 67 0 33 -75 143 -145 214 -64
65 -97 89 -165 122 -160 78 -137 76 -776 80 l-571 3 40 39 39 40 487 3 c267 1
495 3 506 4 11 1 54 -4 95 -11z m-2370 -104 c0 -5 -41 -16 -91 -24 -181 -33
-343 -144 -437 -302 -28 -47 -43 -65 -47 -55 -19 50 163 253 280 311 69 35
147 63 195 71 46 8 100 7 100 -1z m2230 -2 c0 -7 -375 -10 -1105 -10 -730 0
-1105 3 -1105 10 0 7 375 10 1105 10 730 0 1105 -3 1105 -10z m174 -10 c158
-40 297 -140 388 -279 51 -77 56 -91 36 -91 -7 0 -26 23 -41 51 -38 66 -135
169 -202 214 -71 47 -168 83 -261 96 -41 6 -74 15 -74 20 0 15 73 10 154 -11z
m-174 -30 c0 -7 -375 -10 -1105 -10 -730 0 -1105 3 -1105 10 0 7 375 10 1105
10 730 0 1105 -3 1105 -10z m-2225 -50 c0 -11 -17 -17 -63 -23 -73 -9 -148
-36 -214 -79 -60 -38 -150 -135 -174 -187 -18 -39 -54 -57 -54 -28 0 27 78
133 136 187 74 68 141 105 236 130 84 22 133 22 133 0z m2225 5 c0 -13 -129
-15 -1105 -15 -976 0 -1105 2 -1105 15 0 13 129 15 1105 15 976 0 1105 -2
1105 -15z m133 0 c95 -20 200 -78 273 -150 60 -59 128 -161 118 -177 -12 -19
-31 -5 -58 45 -76 135 -269 257 -408 257 -31 0 -38 3 -38 20 0 24 19 25 113 5z
m-2363 -95 c0 -58 -1 -60 -25 -60 -46 0 -149 -41 -201 -80 -44 -33 -105 -108
-117 -143 -4 -12 -92 17 -103 34 -11 18 51 111 111 167 85 80 215 139 308 141
27 1 27 0 27 -59z m2230 5 l0 -55 -1105 0 -1105 0 0 55 0 55 1105 0 1105 0 0
-55z m129 40 c131 -31 264 -131 324 -242 l28 -52 -47 -20 c-26 -12 -50 -21
-53 -21 -4 0 -17 17 -29 38 -51 92 -179 177 -284 189 l-48 6 0 58 c0 69 1 69
109 44z m-24 -130 c33 -9 81 -30 108 -47 94 -60 115 -96 230 -380 101 -250
237 -619 237 -643 0 -21 -116 -125 -150 -135 -58 -17 -265 -38 -635 -67 -328
-25 -390 -26 -995 -26 -605 0 -667 1 -1000 26 -358 27 -575 50 -640 67 -22 6
-57 32 -94 69 l-60 60 29 83 c106 309 305 797 350 858 51 69 135 123 218 140
23 4 560 8 1192 9 1010 1 1158 -1 1210 -14z m-2820 -175 c5 -8 -187 -514 -200
-528 -1 -1 -9 0 -18 4 -17 6 -4 49 96 304 84 216 103 251 122 220z m3354 -251
c101 -256 106 -278 70 -279 -3 0 -36 80 -72 178 -37 97 -82 216 -101 264 -33
84 -35 98 -11 98 6 0 57 -118 114 -261z m-3245 211 l25 -9 -36 -83 c-52 -122
-165 -416 -243 -630 -37 -102 -74 -195 -82 -207 -14 -20 -15 -19 -51 27 l-36
48 56 154 c80 223 76 214 175 465 50 127 94 240 99 253 8 22 10 22 39 7 16 -8
41 -20 54 -25z m3159 -130 c35 -91 110 -290 167 -443 l103 -278 -30 -41 c-17
-23 -35 -44 -40 -45 -18 -6 -40 41 -113 247 -40 113 -113 306 -162 430 -50
124 -93 231 -95 237 -3 8 16 22 49 36 29 13 54 23 55 23 1 -1 31 -76 66 -166z
m310 66 c88 -41 87 -33 19 -131 -58 -84 -92 -115 -92 -82 0 6 -23 60 -52 120
l-52 107 29 30 c28 30 29 30 49 11 12 -10 56 -35 99 -55z m-3823 48 c0 -15
-63 -240 -69 -246 -4 -4 -40 26 -81 67 -41 41 -72 76 -69 78 12 10 156 77 165
77 7 0 17 7 24 15 12 15 30 20 30 9z m-644 -201 c16 -49 40 -101 61 -131 13
-17 22 -36 19 -41 -3 -4 -62 -44 -131 -87 -69 -43 -205 -130 -302 -192 l-178
-112 -42 45 c-51 56 -98 148 -117 231 l-14 62 142 50 c77 28 229 82 336 120
107 39 201 71 208 71 7 1 15 -7 18 -16z m5123 -18 c53 -19 203 -73 335 -120
131 -46 241 -87 244 -90 10 -10 -29 -129 -64 -195 -19 -36 -49 -83 -68 -105
l-34 -40 -73 50 c-41 27 -164 105 -274 175 -110 69 -216 137 -236 150 l-37 24
28 41 c16 23 36 65 45 93 10 29 22 52 28 52 5 0 53 -16 106 -35z m-4665 -146
c87 -90 136 -148 136 -161 0 -16 -30 8 -127 102 -71 68 -141 136 -157 151 -28
26 -29 49 -2 49 8 0 75 -63 150 -141z m4253 125 c2 -5 -67 -79 -152 -164 -130
-130 -155 -151 -155 -130 0 18 36 61 142 167 133 133 157 152 165 127z m-4180
-511 c-10 -23 -18 -17 -214 179 -192 192 -202 203 -186 221 16 17 26 9 214
-179 185 -185 197 -198 186 -221z m4347 394 c9 -14 -21 -49 -191 -219 l-202
-202 -12 28 c-13 27 -10 30 182 222 106 107 198 193 203 191 5 -2 14 -11 20
-20z m-4572 -224 c109 -109 198 -205 198 -213 0 -8 -37 -123 -82 -255 -44
-132 -100 -299 -123 -372 l-41 -131 -393 385 -392 386 43 29 c24 16 147 94
273 173 127 79 246 155 265 169 19 14 39 25 45 26 5 0 99 -89 207 -197z m4802
71 c110 -70 250 -158 309 -197 l109 -70 -388 -388 c-214 -214 -389 -387 -390
-386 -1 1 -59 173 -129 381 l-127 379 203 203 c112 112 206 204 208 204 2 0
94 -57 205 -126z m-5864 -20 c22 -86 58 -161 113 -232 l40 -53 -38 -39 c-22
-22 -44 -40 -51 -40 -14 0 -71 68 -113 137 -36 58 -85 187 -96 250 l-7 42 39
4 c92 10 94 9 113 -69z m54 35 c9 -58 60 -164 103 -217 28 -34 34 -48 26 -60
-17 -28 -27 -23 -70 36 -47 63 -97 174 -108 240 -6 40 -6 42 18 42 21 0 25 -6
31 -41z m6461 9 c-20 -91 -76 -204 -144 -288 -20 -25 -20 -25 -35 -5 -13 18
-11 23 13 55 45 57 77 120 102 198 20 63 26 72 47 72 21 0 23 -3 17 -32z m144
16 c8 -8 -17 -111 -42 -174 -31 -76 -79 -156 -128 -212 l-37 -43 -45 43 -45
44 53 73 c55 77 100 177 111 246 l7 41 61 -7 c34 -4 63 -9 65 -11z m-6044
-712 c289 -286 385 -388 383 -403 -2 -11 -6 -21 -9 -22 -3 -1 -185 175 -404
390 -343 339 -396 395 -385 408 7 9 16 14 20 13 5 -2 182 -175 395 -386z
m5696 372 c11 -13 -40 -68 -383 -411 -379 -379 -396 -395 -408 -373 -12 22 9
44 376 411 214 214 392 389 395 389 4 0 12 -7 20 -16z m-4991 -4 c0 -6 -29
-97 -65 -203 -36 -105 -88 -266 -116 -355 -27 -90 -54 -172 -59 -183 -12 -21
-50 -26 -50 -6 0 26 226 717 245 746 8 14 45 14 45 1z m3920 8 c0 -2 56 -171
125 -377 79 -235 122 -378 116 -384 -5 -5 -18 -6 -28 -3 -15 5 -30 41 -66 159
-37 120 -179 557 -195 598 -2 5 8 9 22 9 14 0 26 -1 26 -2z m-4271 -812 c9
-11 8 -27 -4 -68 -8 -29 -20 -60 -25 -68 -7 -11 -101 76 -438 410 l-428 425
45 47 44 47 398 -390 c218 -214 402 -395 408 -403z m5046 274 c-296 -296 -428
-421 -435 -414 -6 6 -18 36 -27 68 l-16 58 404 404 404 404 47 -47 48 -48
-425 -425z m-4625 395 c0 -7 -12 -44 -26 -81 -14 -38 -39 -107 -54 -152 -16
-46 -31 -86 -34 -90 -4 -3 -22 9 -40 28 l-35 33 60 171 c32 94 59 173 59 176
1 10 70 -74 70 -85z m3865 -90 l59 -175 -35 -36 -36 -36 -62 166 c-35 94 -59
171 -55 178 17 29 57 78 63 78 4 0 34 -79 66 -175z m-3462 25 c149 -22 761
-61 1102 -70 244 -7 478 -7 722 0 344 9 943 47 1121 71 45 6 89 8 97 5 10 -3
15 -19 15 -45 0 -48 23 -42 -285 -71 -878 -80 -1788 -79 -2658 5 -131 12 -240
25 -243 28 -3 3 -3 24 1 46 8 47 11 48 128 31z m-262 -50 c30 -16 61 -30 69
-30 44 -1 43 -10 -61 -331 -56 -173 -102 -315 -103 -317 -14 -15 -256 73 -256
93 0 13 91 312 102 335 21 43 184 280 193 280 1 0 26 -13 56 -30z m3602 -92
c46 -68 91 -136 99 -153 25 -52 101 -322 95 -339 -9 -23 -101 -66 -176 -82
-60 -12 -67 -12 -78 3 -7 9 -13 23 -13 30 0 6 -22 79 -49 160 -27 81 -68 207
-91 278 -23 72 -44 135 -46 141 -2 5 20 18 50 27 30 10 65 26 78 37 13 11 28
19 35 20 6 0 50 -55 96 -122z m-3278 27 c812 -82 1863 -88 2645 -15 118 12
247 23 286 27 l70 6 26 -74 c21 -60 147 -452 172 -536 6 -17 2 -22 -21 -27
-54 -11 -422 -46 -768 -73 -331 -25 -386 -27 -1010 -27 -650 0 -666 1 -1065
32 -381 30 -726 65 -735 74 -2 2 42 144 97 316 l102 312 30 0 c17 0 94 -7 171
-15z m-595 -184 c0 -8 -11 -51 -24 -95 -14 -45 -34 -114 -46 -155 l-22 -74
-33 47 -33 47 34 112 c19 62 39 131 46 154 l12 43 33 -32 c18 -18 33 -39 33
-47z m4105 -78 l48 -152 -27 -41 c-14 -22 -30 -40 -35 -40 -5 0 -13 17 -18 38
-6 20 -27 93 -47 161 l-36 125 32 33 c17 18 32 32 34 30 1 -1 23 -70 49 -154z
m-4030 -347 c46 -11 50 -15 53 -44 2 -18 -1 -32 -6 -32 -44 0 -232 81 -232
100 0 6 5 19 11 29 11 17 15 17 68 -11 31 -16 79 -35 106 -42z m4023 49 c11
-23 9 -27 -28 -50 -48 -31 -121 -60 -172 -69 -37 -7 -38 -6 -38 23 0 27 4 30
68 50 37 11 85 32 107 45 51 31 50 31 63 1z m-4020 -127 c58 -14 57 -12 46
-105 -6 -48 -9 -53 -31 -53 -30 0 -160 43 -213 70 l-38 20 14 62 c8 35 16 68
19 75 3 9 26 2 77 -22 40 -19 97 -40 126 -47z m4048 25 c8 -32 18 -66 20 -75
6 -21 -58 -55 -160 -87 -102 -31 -103 -31 -111 37 -4 31 -7 63 -8 70 -1 9 25
22 73 36 41 12 95 33 120 48 25 14 46 26 47 27 1 1 10 -25 19 -56z m-3726 7
c96 -11 335 -32 530 -47 342 -27 381 -28 1065 -28 686 0 722 1 1070 28 198 16
436 37 530 48 224 25 215 26 215 -11 0 -17 -5 -30 -12 -30 -7 0 -173 -16 -369
-34 -343 -34 -508 -44 -1029 -66 -308 -13 -490 -13 -805 0 -501 21 -677 32
-1028 66 -197 18 -365 34 -373 34 -14 0 -20 41 -7 53 9 10 18 9 213 -13z m120
-85 c568 -55 962 -75 1480 -75 520 0 888 19 1479 76 200 19 365 34 366 32 7
-7 21 -139 16 -142 -21 -13 -390 -48 -871 -82 -335 -24 -417 -26 -995 -26
-605 0 -647 2 -1055 31 -377 28 -558 44 -753 67 l-58 7 6 56 c8 67 14 91 23
91 4 0 167 -16 362 -35z"/>
<path d="M3382 5631 c-13 -22 -21 -28 -30 -19 -17 17 -62 0 -72 -28 -12 -30 0
-58 30 -74 18 -10 19 -13 5 -26 -20 -20 -19 -37 4 -65 16 -20 23 -22 47 -14
20 7 30 18 32 36 3 24 5 25 36 15 32 -10 33 -11 19 -33 -14 -21 -14 -26 1 -48
21 -32 60 -33 81 -1 8 13 13 30 10 38 -4 11 2 13 29 10 32 -4 34 -6 25 -23
-21 -40 19 -87 62 -74 30 10 40 45 22 75 -10 16 -11 21 -2 13 36 -34 96 4 86
55 -5 23 -2 28 14 28 14 0 19 -7 19 -26 0 -14 6 -32 13 -39 10 -10 9 -12 -3
-11 -35 5 -51 -1 -61 -24 -8 -17 -8 -29 0 -44 10 -19 9 -20 -23 -15 -29 4 -37
1 -51 -20 -14 -22 -15 -30 -3 -54 28 -60 105 -32 95 35 -5 28 -3 33 10 28 40
-16 82 51 52 81 -8 8 0 12 29 15 22 2 38 0 35 -5 -3 -4 -2 -19 1 -32 7 -29 45
-42 75 -25 24 12 29 58 9 78 -9 9 -7 12 9 12 42 0 64 59 34 89 -12 12 -17 21
-12 21 5 0 16 3 25 6 11 4 16 1 16 -10 0 -9 9 -25 20 -36 l20 -20 -20 0 c-32
0 -47 -43 -26 -75 18 -27 43 -32 68 -12 24 19 28 43 11 66 -8 12 -13 23 -12
24 2 1 14 7 25 14 19 10 23 8 33 -13 9 -20 17 -25 43 -22 37 4 53 26 44 61 -8
35 -49 46 -76 22 -19 -17 -20 -17 -20 3 0 32 -44 58 -74 44 -21 -9 -25 -8 -30
13 -7 28 -50 44 -75 28 -19 -12 -27 -59 -12 -77 6 -7 8 -16 4 -19 -12 -13 -21
-7 -27 18 -9 34 -46 51 -76 35 -19 -10 -22 -18 -17 -51 4 -33 2 -39 -13 -39
-13 0 -17 5 -13 19 7 28 -32 64 -60 55 -33 -9 -40 -20 -39 -54 0 -20 -4 -30
-14 -30 -11 0 -13 6 -9 20 8 25 -9 56 -34 63 -28 7 -61 -20 -61 -49 0 -18 -5
-24 -22 -24 -17 0 -19 3 -10 12 37 37 -15 102 -63 80 -17 -8 -25 -20 -25 -38
0 -20 -4 -25 -16 -20 -9 3 -18 6 -20 6 -2 0 2 10 10 23 21 31 1 71 -36 75 -22
3 -32 -3 -46 -27z"/>
</g>
</svg>
